<svg width="12" height="12" viewBox="0 0 12 12" fill="none" xmlns="http://www.w3.org/2000/svg">
<path d="M5.99984 0.666992C6.36803 0.666992 6.6665 0.965469 6.6665 1.33366V5.33366H10.6665C11.0347 5.33366 11.3332 5.63214 11.3332 6.00033C11.3332 6.36852 11.0347 6.667 10.6665 6.667H6.6665V10.667C6.6665 11.0352 6.36803 11.3337 5.99984 11.3337C5.63165 11.3337 5.33317 11.0352 5.33317 10.667V6.667H1.33317C0.964981 6.667 0.666504 6.36852 0.666504 6.00033C0.666504 5.63214 0.964981 5.33366 1.33317 5.33366H5.33317V1.33366C5.33317 0.965469 5.63165 0.666992 5.99984 0.666992Z" fill="#2F80ED"/>
</svg>
